<?xml version="1.0" standalone="no"?>
<!DOCTYPE svg PUBLIC "-//W3C//DTD SVG 20010904//EN"
 "http://www.w3.org/TR/2001/REC-SVG-20010904/DTD/svg10.dtd">
<svg version="1.0" xmlns="http://www.w3.org/2000/svg"
 width="600.000000pt" height="600.000000pt" viewBox="0 0 600.000000 600.000000"
 preserveAspectRatio="xMidYMid meet">

<g transform="translate(0.000000,600.000000) scale(0.100000,-0.100000)"
fill="#000000" stroke="none">
<path d="M2720 4905 c-202 -26 -246 -36 -335 -71 -49 -20 -106 -45 -125 -54
-19 -10 -72 -37 -118 -59 -110 -55 -235 -142 -297 -206 -27 -28 -59 -58 -70
-66 -11 -8 -33 -32 -50 -54 -16 -22 -52 -68 -80 -101 -76 -93 -205 -301 -205
-330 0 -6 -18 -51 -40 -99 -23 -48 -47 -119 -54 -158 -9 -47 -20 -75 -31 -82
-44 -25 -138 -111 -199 -180 -97 -111 -159 -241 -187 -393 -12 -64 -24 -177
-28 -251 -6 -115 -10 -136 -27 -150 -36 -30 -102 -146 -144 -251 -68 -172 -97
-361 -78 -504 5 -39 11 -150 13 -246 3 -168 2 -176 -20 -215 -26 -44 -50 -110
-59 -167 -5 -28 -1 -48 15 -80 23 -45 25 -47 98 -89 25 -14 68 -39 96 -55 48
-27 58 -29 292 -45 211 -14 250 -19 305 -41 78 -31 116 -43 193 -59 33 -7 69
-20 80 -29 69 -60 204 -90 425 -96 194 -6 236 -1 285 31 33 23 39 24 87 14 38
-9 65 -8 104 0 51 12 418 14 490 4 17 -3 43 -15 58 -28 30 -26 123 -50 164
-42 14 3 36 -2 49 -10 20 -13 46 -15 146 -10 67 3 142 10 167 16 65 15 219 40
340 57 58 7 159 28 225 45 66 17 153 35 193 40 40 5 83 15 95 23 17 11 34 12
77 5 241 -42 323 -48 368 -25 15 7 47 14 72 14 25 0 61 7 80 15 19 9 73 18
120 22 96 9 164 28 264 75 202 96 217 210 46 353 -41 34 -91 84 -110 110 l-36
47 -1 317 c-2 232 -6 344 -17 413 -37 224 -44 247 -135 445 -63 137 -83 176
-117 225 -17 25 -39 61 -49 80 -10 19 -30 49 -45 66 -21 24 -34 64 -64 190
-21 87 -44 186 -52 219 -18 69 -75 223 -104 277 -11 20 -20 43 -20 51 0 17
-73 132 -131 207 -44 57 -118 125 -229 210 -89 68 -125 86 -205 103 -66 13
-71 16 -102 63 -44 65 -181 214 -197 214 -6 0 -37 23 -68 50 -34 30 -106 76
-180 113 -124 64 -230 95 -423 127 -109 18 -394 21 -515 5z m360 -71 c182 -8
249 -19 325 -54 22 -10 67 -24 100 -31 33 -7 83 -26 110 -42 75 -44 203 -136
217 -156 7 -10 27 -25 44 -34 17 -9 45 -33 63 -54 80 -95 129 -161 149 -203
24 -50 51 -88 97 -136 43 -45 110 -142 129 -189 9 -22 26 -73 36 -114 l20 -74
-24 -51 c-13 -28 -40 -73 -60 -101 -19 -27 -45 -70 -56 -95 -12 -25 -30 -54
-40 -65 -10 -11 -26 -36 -37 -56 -86 -169 -97 -184 -215 -304 -109 -111 -138
-145 -191 -231 -9 -16 -29 -45 -43 -64 -14 -19 -28 -47 -31 -62 -8 -38 -16
-43 -123 -67 -52 -12 -104 -26 -115 -31 -11 -5 -56 -23 -100 -40 -120 -47
-195 -97 -257 -170 -73 -87 -88 -118 -88 -185 0 -66 17 -111 64 -168 19 -24
41 -54 48 -68 23 -45 151 -156 223 -193 115 -60 267 -149 318 -186 27 -19 64
-44 83 -56 43 -26 59 -48 73 -101 28 -103 153 -270 239 -320 26 -15 61 -37 78
-50 39 -29 177 -93 201 -93 10 0 25 -5 33 -10 29 -18 -8 -33 -142 -57 -73 -13
-167 -30 -208 -38 -41 -8 -101 -14 -134 -15 -63 0 -168 23 -202 45 -12 7 -50
23 -84 34 -81 27 -292 30 -327 6 -39 -27 -114 -37 -373 -47 -441 -16 -510 -12
-617 38 -94 44 -276 56 -420 29 -63 -12 -94 -13 -158 -4 -119 16 -215 37 -262
59 -24 11 -47 20 -52 20 -6 0 -93 54 -119 75 -2 1 26 30 61 63 39 38 76 86 97
127 33 63 77 105 111 105 8 0 38 20 67 43 29 24 100 72 157 107 58 34 105 67
105 71 0 5 32 25 72 45 242 122 358 232 412 389 24 72 22 226 -4 279 -26 54
-81 109 -133 134 -48 22 -206 52 -279 52 -45 0 -49 2 -72 39 -31 49 -169 185
-218 214 -145 88 -176 108 -188 121 -7 9 -19 16 -26 16 -7 0 -21 15 -30 33
-10 17 -25 43 -36 57 -14 20 -19 51 -24 160 -6 119 -4 145 16 220 12 46 26 93
32 104 11 20 36 117 62 241 12 58 109 266 164 352 71 110 253 321 317 367 22
16 61 48 86 70 38 34 179 126 193 126 2 0 33 18 69 40 36 21 78 42 94 45 15 4
51 15 78 26 94 35 209 58 318 64 43 2 82 6 85 10 4 4 41 4 82 0 41 -4 113 -9
160 -11z m1173 -570 c107 -54 324 -232 334 -274 3 -14 20 -47 38 -75 18 -27
42 -72 54 -100 12 -27 25 -52 29 -55 12 -8 60 -130 73 -185 7 -27 22 -68 35
-90 12 -22 32 -77 43 -122 12 -45 26 -94 31 -109 6 -14 17 -60 26 -101 18 -87
49 -153 73 -153 14 0 61 -56 61 -73 0 -4 23 -48 51 -97 28 -50 63 -125 79
-168 16 -42 43 -111 60 -152 49 -117 70 -320 69 -675 -1 -343 -2 -363 -23
-449 -11 -48 -13 -73 -6 -80 5 -5 10 -22 10 -37 0 -15 7 -32 15 -39 18 -15 22
1 29 112 2 43 7 82 11 88 6 10 72 -42 186 -148 59 -55 65 -73 38 -123 -10 -20
-107 -76 -123 -71 -5 2 -37 -11 -71 -27 -46 -23 -85 -33 -153 -40 -50 -5 -101
-16 -114 -23 -14 -7 -72 -15 -143 -18 -106 -4 -120 -7 -119 -22 2 -22 -15 -23
-103 -2 -37 9 -90 20 -118 25 -138 24 -272 65 -400 123 -16 8 -41 17 -54 21
-13 4 -42 24 -65 44 -23 20 -65 56 -95 79 -43 34 -70 69 -133 175 -43 72 -81
140 -84 150 -7 23 -281 204 -353 233 -29 12 -64 33 -77 47 -12 13 -50 46 -83
72 -65 51 -155 157 -183 215 -28 59 -28 98 3 164 15 34 38 71 51 83 55 51 136
104 173 115 109 30 352 122 371 139 12 11 27 38 34 60 8 22 24 54 36 70 13 17
35 55 49 85 15 30 42 66 61 80 19 15 48 45 64 68 17 22 50 57 74 76 50 40 114
130 171 240 22 41 62 111 90 155 28 44 76 130 107 190 48 95 56 120 62 185 9
116 -31 251 -70 236 -9 -3 -21 0 -29 7 -150 142 -195 197 -160 197 9 0 39 -12
68 -26z m-2954 -749 c-6 -22 -14 -55 -19 -74 -5 -19 -17 -39 -26 -44 -60 -34
-138 -151 -150 -227 -8 -48 6 -88 47 -140 37 -45 63 -62 239 -150 112 -57 173
-95 221 -140 8 -8 38 -36 65 -61 27 -25 66 -65 87 -90 36 -41 37 -44 20 -57
-10 -7 -30 -16 -45 -19 -15 -3 -33 -12 -40 -21 -11 -13 -9 -14 22 -7 59 13
279 6 340 -12 154 -44 213 -94 225 -187 11 -92 -11 -189 -60 -266 -51 -79
-145 -170 -200 -192 -169 -69 -271 -117 -293 -137 -15 -13 -49 -37 -77 -54
-27 -16 -55 -37 -62 -47 -7 -10 -35 -32 -62 -49 -56 -34 -114 -103 -167 -197
-65 -116 -173 -177 -334 -189 -52 -3 -120 -13 -151 -22 l-55 -15 -65 36 c-36
20 -76 47 -89 61 -23 25 -24 27 -9 82 11 45 20 60 44 73 25 14 31 24 35 61 3
24 1 71 -3 103 -6 42 -5 66 3 82 9 15 11 51 6 116 -18 286 -19 375 -1 479 17
105 60 234 99 299 12 19 26 46 32 60 6 14 22 49 35 79 13 30 31 61 39 69 11
11 16 50 21 147 3 72 8 136 12 141 3 5 10 44 16 87 12 88 56 185 119 263 34
43 184 200 189 199 1 0 -3 -18 -8 -40z m854 -2600 c32 -8 71 -25 88 -37 l31
-23 -54 -9 c-71 -12 -324 9 -355 30 -28 18 -29 31 -3 39 11 3 20 11 20 17 0
15 198 3 273 -17z m1394 -41 c49 -19 69 -32 63 -38 -12 -12 -322 -15 -364 -3
-26 7 -27 9 -12 26 9 10 16 23 16 29 0 17 29 21 130 18 76 -3 110 -9 167 -32z"/>
<path d="M3211 3044 c-25 -32 -36 -100 -21 -139 15 -40 59 -85 83 -85 78 0
110 112 61 215 -15 32 -20 35 -59 35 -35 0 -48 -5 -64 -26z"/>
<path d="M2028 3043 c-33 -21 -42 -59 -36 -140 4 -45 10 -61 31 -79 23 -20 31
-22 58 -12 21 7 36 22 45 44 17 41 18 141 1 174 -16 31 -61 37 -99 13z"/>
<path d="M2575 2979 c-16 -5 -55 -24 -85 -42 -43 -26 -56 -40 -61 -65 -6 -27
-3 -36 16 -48 29 -19 129 -36 115 -20 -7 9 8 10 58 4 84 -10 279 1 291 16 26
33 22 54 -14 76 -20 12 -44 20 -55 17 -12 -3 -17 0 -14 7 5 13 -13 24 -80 51
-42 16 -123 19 -171 4z m106 -11 c-14 -5 -31 -6 -38 -4 -7 3 -13 1 -13 -4 0
-6 -19 -9 -42 -9 -24 1 -34 3 -23 6 11 3 24 8 28 13 5 4 32 8 60 8 43 0 48 -2
28 -10z m108 -48 c23 -11 47 -17 52 -14 5 3 9 1 9 -5 0 -6 8 -8 18 -4 11 3 9
0 -6 -11 -12 -10 -57 -24 -100 -33 -42 -8 -82 -19 -88 -24 -20 -16 -174 19
-174 39 0 18 46 61 70 65 70 12 176 6 219 -13z"/>
<path d="M4140 2767 c-14 -7 -26 -20 -28 -30 -3 -17 4 -18 96 -11 134 9 251
-8 312 -47 97 -60 138 -54 65 10 -77 67 -157 91 -310 91 -69 0 -119 -5 -135
-13z"/>
<path d="M3798 2629 c-40 -23 -15 -30 105 -29 67 1 130 1 139 1 10 -1 42 -22
72 -48 30 -27 87 -70 127 -98 39 -27 90 -68 112 -90 22 -22 44 -39 49 -37 5 1
7 -1 4 -6 -5 -8 30 -60 97 -144 l18 -23 -5 27 c-21 98 -106 190 -293 316 -48
33 -99 72 -113 87 -44 47 -70 55 -187 55 -59 0 -116 -5 -125 -11z"/>
<path d="M3914 1581 c15 -16 49 -37 74 -46 26 -10 93 -37 149 -61 103 -43 188
-67 168 -46 -17 18 -188 102 -207 102 -10 0 -56 18 -103 40 -101 48 -118 50
-81 11z"/>
<path d="M1405 2565 c-5 -2 -31 -6 -58 -10 -26 -3 -45 -10 -43 -14 3 -4 35 -4
72 1 36 5 122 8 190 6 82 -2 120 0 113 7 -9 9 -253 19 -274 10z"/>
<path d="M1761 4797 c-31 -16 -46 -40 -38 -61 6 -15 10 -15 44 3 55 29 76 48
68 60 -8 15 -44 14 -74 -2z"/>
<path d="M1493 4583 c-17 -16 -52 -54 -77 -85 -73 -92 -55 -133 26 -60 153
136 177 172 115 172 -21 0 -44 -9 -64 -27z"/>
<path d="M1252 4286 c-12 -20 -24 -51 -28 -71 -9 -51 15 -46 65 13 47 54 50
85 10 90 -21 2 -31 -4 -47 -32z"/>
<path d="M1166 4058 c-17 -24 -22 -98 -7 -98 8 0 51 98 51 115 0 14 -31 2 -44
-17z"/>
<path d="M5424 2655 c-3 -8 1 -28 10 -45 9 -16 23 -43 32 -60 29 -55 61 -30
43 33 -18 66 -71 110 -85 72z"/>
<path d="M541 2555 c-55 -51 -81 -98 -81 -144 0 -40 9 -39 37 2 13 18 43 57
68 86 74 87 56 131 -24 56z"/>
<path d="M5517 2383 c-2 -4 -1 -35 4 -68 4 -33 8 -95 8 -137 1 -69 3 -78 20
-78 30 0 44 50 39 143 -2 45 -11 95 -19 112 -14 29 -42 44 -52 28z"/>
<path d="M402 2248 c-31 -8 -33 -11 -26 -41 8 -40 33 -79 48 -74 19 6 36 110
19 120 -5 2 -23 0 -41 -5z"/>
<path d="M394 2022 c-19 -12 -27 -71 -14 -103 16 -39 41 -34 52 10 18 68 -2
118 -38 93z"/>
<path d="M5525 1990 c-13 -24 -13 -33 -3 -50 28 -45 78 -2 64 54 -9 36 -41 34
-61 -4z"/>
<path d="M5510 1784 c-15 -39 -12 -61 12 -78 16 -11 25 -13 35 -4 13 11 18 64
7 92 -10 25 -43 19 -54 -10z"/>
</g>
</svg>
